#!OML:ASF F:\VICON\USERDATA\INSTALL\Justin_Nancy\Justin_Nancy.ASF
:FULLY-SPECIFIED
:DEGREES
181
root 0.601513 17.1709 17.2988 -2.45734 -5.22652 4.39423
lowerback 5.22618 0.996408 -3.40335
upperback 0.606197 1.14501 0.535205
thorax -2.38368 0.60486 2.37869
lowerneck -15.7432 -2.11822 -10.176
upperneck 22.1951 -1.33844 4.32854
head 9.74744 -0.990687 3.04364
rclavicle -4.63417e-015 -7.95139e-016
rhumerus -30.0761 -13.2297 -77.9805
rradius 33.4634
rwrist 4.69894
rhand -14.5935 12.1192
rfingers 7.12502
rthumb 11.5568 -17.5422
lclavicle -4.63417e-015 -7.95139e-016
lhumerus -40.0067 11.9008 80.146
lradius 22.3692
lwrist -12.9259
lhand -11.3098 26.5629
lfingers 7.12502
lthumb 14.722 56.0201
rfemur -17.2568 -0.957844 16.1289
rtibia 73.9163
rfoot 1.24616 -2.33311
rtoes 4.60164
lfemur -14.5875 -2.65784 -29.1236
ltibia 34.0009
lfoot -12.989 1.24116
ltoes 2.03904
182
root 0.598433 17.1597 17.5456 -2.603 -4.84545 5.05716
lowerback 5.07657 0.814721 -4.01751
upperback 0.709073 0.872436 0.378857
thorax -2.18223 0.468455 2.58514
lowerneck -15.6471 -2.07369 -10.1106
upperneck 22.0604 -1.28011 4.23334
head 9.6761 -0.966632 3.004
rclavicle 1.57785e-014 -1.59028e-014
rhumerus -30.4967 -13.3394 -78.008
rradius 33.1936
rwrist 5.0505
rhand -14.5738 12.514
rfingers 7.12502
rthumb 11.5758 -17.1463
lclavicle 1.57785e-014 -1.59028e-014
lhumerus -39.3696 11.2074 80.6424
lradius 22.7655
lwrist -12.4003
lhand -11.3546 26.8448
lfingers 7.12502
lthumb 14.6789 56.3052
rfemur -18.6627 -1.66508 15.391
rtibia 73.8476
rfoot -0.192571 -2.10788
rtoes 4.90851
lfemur -13.3127 -2.70382 -30.05
ltibia 33.8457
lfoot -13.8045 1.35666
ltoes 1.47663
183
root 0.591609 17.1441 17.7777 -2.56951 -4.61592 5.1954
lowerback 4.96449 0.657014 -4.18621
upperback 0.793914 0.660393 0.395561
thorax -2.01811 0.3593 2.71357
lowerneck -15.7263 -2.05084 -10.0265
upperneck 22.0106 -1.22323 4.07794
head 9.66798 -0.949057 2.94145
rclavicle -1.00262e-014 -3.97569e-015
rhumerus -30.7007 -13.4596 -78.066
rradius 32.8858
rwrist 5.28671
rhand -14.519 12.4757
rfingers 7.12502
rthumb 11.6286 -17.1816
lclavicle -1.00262e-014 -3.97569e-015
lhumerus -38.6 10.5172 81.1284
lradius 23.1632
lwrist -12.3404
lhand -10.6991 27.8167
lfingers 7.12502
lthumb 15.3104 57.23
rfemur -20.3499 -2.07591 15.401
rtibia 73.5827
rfoot -2.08759 -2.41521
rtoes 4.63945
lfemur -12.3658 -2.85248 -30.3313
ltibia 33.6918
lfoot -14.4428 1.58801
ltoes 1.2162
184
root 0.581418 17.1351 18.0176 -2.59358 -4.34801 5.41628
lowerback 4.92361 0.48642 -4.45663
upperback 0.835992 0.421316 0.377317
thorax -1.9348 0.239252 2.86334
lowerneck -15.7048 -2.0278 -10.0532
upperneck 21.959 -1.17407 4.02741
head 9.64228 -0.933281 2.9334
rclavicle 1.00386e-014 2.46493e-014
rhumerus -30.9817 -13.3325 -78.1823
rradius 32.4453
rwrist 5.32331
rhand -14.7535 12.4112
rfingers 7.12502
rthumb 11.4025 -17.2587
lclavicle 1.00386e-014 2.46493e-014
lhumerus -37.9499 9.75486 81.5102
lradius 23.5645
lwrist -12.2678
lhand -10.4067 27.9656
lfingers 7.12502
lthumb 15.5919 57.3572
rfemur -22.0117 -2.43329 15.3517
rtibia 73.1098
rfoot -4.14359 -2.61331
rtoes 4.43366
lfemur -11.3817 -3.10092 -30.7042
ltibia 33.6066
lfoot -15.1923 1.81723
ltoes 1.37652
185
root 0.569232 17.116 18.2601 -2.61913 -3.92158 5.94479
lowerback 4.83556 0.291254 -5.02946
upperback 0.813591 0.133371 0.26634
thorax -1.88561 0.0981588 3.08983
lowerneck -15.4508 -2.04291 -10.1539
upperneck 21.823 -1.19693 4.02525
head 9.54998 -0.951366 2.94383
rclavicle 7.1811e-015 -1.59028e-015
rhumerus -31.5724 -13.3801 -78.1541
rradius 32.0792
rwrist 5.54261
rhand -14.7497 12.969
rfingers 7.12502
rthumb 11.4061 -16.7007
lclavicle 7.1811e-015 -1.59028e-015
lhumerus -37.5099 8.94953 81.8576
lradius 24.0057
lwrist -12.0043
lhand -11.0131 26.7728
lfingers 7.12502
lthumb 15.0078 56.2089
rfemur -23.5893 -2.9129 14.9174
rtibia 72.5033
rfoot -6.13459 -2.52721
rtoes 3.58245
lfemur -10.4554 -3.38849 -31.4257
ltibia 33.6631
lfoot -15.9228 1.93734
ltoes 2.28198
